<svg width="350" height="250" viewBox="0 0 350 250" fill="none" xmlns="http://www.w3.org/2000/svg">
<rect width="350" height="250" fill="#8E0000"/>
<path d="M56.4575 114H50.9204V82.0078H56.4575V114ZM61.7749 101.937C61.7749 98.2749 62.6245 95.3379 64.3237 93.126C66.0229 90.8994 68.3008 89.7861 71.1572 89.7861C73.6768 89.7861 75.7129 90.665 77.2656 92.4229V80.25H82.605V114H77.771L77.5073 111.539C75.9106 113.473 73.7793 114.439 71.1133 114.439C68.3301 114.439 66.0742 113.319 64.3457 111.078C62.6318 108.836 61.7749 105.79 61.7749 101.937ZM67.1143 102.398C67.1143 104.815 67.5757 106.705 68.4985 108.067C69.436 109.415 70.7617 110.089 72.4756 110.089C74.6582 110.089 76.2549 109.115 77.2656 107.167V97.0151C76.2842 95.1108 74.7021 94.1587 72.5195 94.1587C70.791 94.1587 69.458 94.8472 68.5205 96.2241C67.583 97.5864 67.1143 99.6445 67.1143 102.398ZM98.645 114.439C95.2612 114.439 92.5146 113.377 90.4053 111.253C88.3105 109.115 87.2632 106.273 87.2632 102.728V102.069C87.2632 99.6958 87.7173 97.5791 88.6255 95.7188C89.5483 93.8438 90.8374 92.3862 92.4927 91.3462C94.1479 90.3062 95.9937 89.7861 98.0298 89.7861C101.267 89.7861 103.765 90.8188 105.522 92.8843C107.295 94.9497 108.181 97.8721 108.181 101.651V103.805H92.6465C92.8076 105.768 93.4595 107.32 94.6021 108.463C95.7593 109.605 97.2095 110.177 98.9526 110.177C101.399 110.177 103.391 109.188 104.929 107.21L107.808 109.957C106.855 111.378 105.581 112.484 103.984 113.275C102.402 114.051 100.623 114.439 98.645 114.439ZM98.0078 94.0708C96.543 94.0708 95.3564 94.5835 94.4482 95.6089C93.5547 96.6343 92.9834 98.0625 92.7344 99.8936H102.908V99.498C102.791 97.7109 102.314 96.3633 101.479 95.4551C100.645 94.5322 99.4873 94.0708 98.0078 94.0708ZM117.3 90.2256L117.454 92.9722C119.211 90.8481 121.519 89.7861 124.375 89.7861C129.326 89.7861 131.846 92.6206 131.934 98.2896V114H126.594V98.5972C126.594 97.0884 126.265 95.9751 125.605 95.2573C124.961 94.5249 123.899 94.1587 122.419 94.1587C120.266 94.1587 118.662 95.1328 117.607 97.0811V114H112.268V90.2256H117.3ZM144.084 84.4468V90.2256H148.281V94.1807H144.084V107.452C144.084 108.36 144.26 109.02 144.612 109.43C144.978 109.825 145.623 110.023 146.545 110.023C147.161 110.023 147.783 109.95 148.413 109.803V113.934C147.197 114.271 146.025 114.439 144.897 114.439C140.796 114.439 138.745 112.176 138.745 107.65V94.1807H134.834V90.2256H138.745V84.4468H144.084ZM158.059 114H152.72V90.2256H158.059V114ZM152.39 84.0513C152.39 83.231 152.646 82.5498 153.159 82.0078C153.687 81.4658 154.434 81.1948 155.4 81.1948C156.367 81.1948 157.114 81.4658 157.642 82.0078C158.169 82.5498 158.433 83.231 158.433 84.0513C158.433 84.8569 158.169 85.5308 157.642 86.0728C157.114 86.6001 156.367 86.8638 155.4 86.8638C154.434 86.8638 153.687 86.6001 153.159 86.0728C152.646 85.5308 152.39 84.8569 152.39 84.0513ZM165.771 114V94.1807H162.146V90.2256H165.771V88.0503C165.771 85.4136 166.504 83.3774 167.969 81.9419C169.434 80.5063 171.484 79.7886 174.121 79.7886C175.059 79.7886 176.055 79.9204 177.109 80.1841L176.978 84.3589C176.392 84.2417 175.71 84.1831 174.934 84.1831C172.385 84.1831 171.111 85.4941 171.111 88.1162V90.2256H175.945V94.1807H171.111V114H165.771ZM188.162 106.354L192.996 90.2256H198.687L189.238 117.604C187.788 121.603 185.327 123.602 181.855 123.602C181.079 123.602 180.222 123.47 179.285 123.207V119.076L180.295 119.142C181.643 119.142 182.654 118.893 183.328 118.395C184.016 117.911 184.558 117.091 184.954 115.934L185.723 113.89L177.373 90.2256H183.13L188.162 106.354ZM223.933 97.1689L231.294 82.0078H237.446L226.724 102.223V114H221.143V102.223L210.398 82.0078H216.572L223.933 97.1689ZM237.952 101.893C237.952 99.564 238.413 97.4692 239.336 95.6089C240.259 93.7339 241.555 92.2983 243.225 91.3022C244.895 90.2915 246.814 89.7861 248.982 89.7861C252.19 89.7861 254.79 90.8188 256.782 92.8843C258.789 94.9497 259.873 97.689 260.034 101.102L260.056 102.354C260.056 104.698 259.602 106.793 258.694 108.639C257.8 110.484 256.511 111.913 254.827 112.923C253.157 113.934 251.223 114.439 249.026 114.439C245.671 114.439 242.983 113.326 240.962 111.1C238.955 108.858 237.952 105.877 237.952 102.157V101.893ZM243.291 102.354C243.291 104.801 243.796 106.72 244.807 108.111C245.818 109.488 247.224 110.177 249.026 110.177C250.828 110.177 252.227 109.474 253.223 108.067C254.233 106.661 254.739 104.603 254.739 101.893C254.739 99.4907 254.219 97.5864 253.179 96.1802C252.153 94.7739 250.754 94.0708 248.982 94.0708C247.239 94.0708 245.854 94.7666 244.829 96.1582C243.804 97.5352 243.291 99.6006 243.291 102.354ZM278.975 111.671C277.407 113.517 275.181 114.439 272.295 114.439C269.717 114.439 267.761 113.685 266.428 112.176C265.11 110.667 264.451 108.485 264.451 105.628V90.2256H269.79V105.562C269.79 108.58 271.042 110.089 273.547 110.089C276.14 110.089 277.891 109.159 278.799 107.298V90.2256H284.138V114H279.106L278.975 111.671ZM302.024 95.1035C301.321 94.9863 300.596 94.9277 299.849 94.9277C297.402 94.9277 295.754 95.8652 294.905 97.7402V114H289.565V90.2256H294.663L294.795 92.8843C296.084 90.8188 297.871 89.7861 300.156 89.7861C300.918 89.7861 301.548 89.8887 302.046 90.0938L302.024 95.1035ZM104.292 156.585C103.97 159.998 102.71 162.664 100.513 164.583C98.3154 166.487 95.3931 167.439 91.7456 167.439C89.1968 167.439 86.9482 166.839 85 165.638C83.0664 164.422 81.5723 162.701 80.5176 160.474C79.4629 158.248 78.9136 155.662 78.8696 152.718V149.729C78.8696 146.712 79.4043 144.053 80.4736 141.753C81.543 139.454 83.0737 137.681 85.0659 136.436C87.0728 135.191 89.3872 134.568 92.0093 134.568C95.5396 134.568 98.3813 135.528 100.535 137.447C102.688 139.366 103.94 142.076 104.292 145.577H98.7549C98.4912 143.277 97.8174 141.622 96.7334 140.611C95.6641 139.585 94.0894 139.073 92.0093 139.073C89.5923 139.073 87.7319 139.959 86.4282 141.731C85.1392 143.489 84.48 146.075 84.4507 149.488V152.322C84.4507 155.779 85.0659 158.416 86.2964 160.232C87.5415 162.049 89.3579 162.957 91.7456 162.957C93.9282 162.957 95.5688 162.466 96.6675 161.485C97.7661 160.503 98.4619 158.87 98.7549 156.585H104.292ZM123.167 164.671C121.599 166.517 119.373 167.439 116.487 167.439C113.909 167.439 111.953 166.685 110.62 165.176C109.302 163.667 108.643 161.485 108.643 158.628V143.226H113.982V158.562C113.982 161.58 115.234 163.089 117.739 163.089C120.332 163.089 122.083 162.159 122.991 160.298V143.226H128.33V167H123.298L123.167 164.671ZM147.095 160.54C147.095 159.588 146.699 158.863 145.908 158.365C145.132 157.867 143.835 157.427 142.019 157.046C140.203 156.666 138.687 156.182 137.471 155.596C134.805 154.307 133.472 152.439 133.472 149.993C133.472 147.942 134.336 146.229 136.064 144.852C137.793 143.475 139.99 142.786 142.656 142.786C145.498 142.786 147.791 143.489 149.534 144.896C151.292 146.302 152.17 148.125 152.17 150.367H146.831C146.831 149.341 146.45 148.492 145.688 147.818C144.927 147.129 143.916 146.785 142.656 146.785C141.484 146.785 140.525 147.056 139.778 147.598C139.045 148.14 138.679 148.865 138.679 149.773C138.679 150.594 139.023 151.231 139.712 151.685C140.4 152.139 141.792 152.601 143.887 153.069C145.981 153.523 147.622 154.073 148.809 154.717C150.01 155.347 150.896 156.109 151.467 157.002C152.053 157.896 152.346 158.98 152.346 160.254C152.346 162.393 151.46 164.129 149.688 165.462C147.915 166.78 145.593 167.439 142.722 167.439C140.774 167.439 139.038 167.088 137.515 166.385C135.991 165.682 134.805 164.715 133.955 163.484C133.105 162.254 132.681 160.928 132.681 159.507H137.866C137.939 160.767 138.416 161.741 139.294 162.43C140.173 163.104 141.338 163.44 142.788 163.44C144.194 163.44 145.264 163.177 145.996 162.649C146.729 162.107 147.095 161.404 147.095 160.54ZM163.706 137.447V143.226H167.903V147.181H163.706V160.452C163.706 161.36 163.882 162.02 164.233 162.43C164.6 162.825 165.244 163.023 166.167 163.023C166.782 163.023 167.405 162.95 168.035 162.803V166.934C166.819 167.271 165.647 167.439 164.519 167.439C160.417 167.439 158.367 165.176 158.367 160.65V147.181H154.456V143.226H158.367V137.447H163.706ZM170.342 154.893C170.342 152.564 170.803 150.469 171.726 148.609C172.649 146.734 173.945 145.298 175.615 144.302C177.285 143.292 179.204 142.786 181.372 142.786C184.58 142.786 187.18 143.819 189.172 145.884C191.179 147.95 192.263 150.689 192.424 154.102L192.446 155.354C192.446 157.698 191.992 159.793 191.084 161.639C190.19 163.484 188.901 164.913 187.217 165.923C185.547 166.934 183.613 167.439 181.416 167.439C178.062 167.439 175.374 166.326 173.352 164.1C171.345 161.858 170.342 158.877 170.342 155.157V154.893ZM175.681 155.354C175.681 157.801 176.187 159.72 177.197 161.111C178.208 162.488 179.614 163.177 181.416 163.177C183.218 163.177 184.617 162.474 185.613 161.067C186.624 159.661 187.129 157.603 187.129 154.893C187.129 152.491 186.609 150.586 185.569 149.18C184.543 147.774 183.145 147.071 181.372 147.071C179.629 147.071 178.245 147.767 177.219 149.158C176.194 150.535 175.681 152.601 175.681 155.354ZM201.982 143.226L202.136 145.708C203.806 143.76 206.091 142.786 208.992 142.786C212.17 142.786 214.346 144.002 215.518 146.434C217.246 144.002 219.678 142.786 222.812 142.786C225.435 142.786 227.383 143.511 228.657 144.961C229.946 146.412 230.605 148.55 230.635 151.377V167H225.295V151.531C225.295 150.022 224.966 148.917 224.307 148.213C223.647 147.51 222.556 147.159 221.033 147.159C219.817 147.159 218.821 147.488 218.044 148.147C217.283 148.792 216.748 149.642 216.44 150.696L216.462 167H211.123V151.355C211.05 148.558 209.622 147.159 206.838 147.159C204.7 147.159 203.184 148.03 202.29 149.773V167H196.951V143.226H201.982ZM246.587 167.439C243.203 167.439 240.457 166.377 238.347 164.253C236.252 162.115 235.205 159.273 235.205 155.728V155.069C235.205 152.696 235.659 150.579 236.567 148.719C237.49 146.844 238.779 145.386 240.435 144.346C242.09 143.306 243.936 142.786 245.972 142.786C249.209 142.786 251.707 143.819 253.464 145.884C255.237 147.95 256.123 150.872 256.123 154.651V156.805H240.588C240.75 158.768 241.401 160.32 242.544 161.463C243.701 162.605 245.151 163.177 246.895 163.177C249.341 163.177 251.333 162.188 252.871 160.21L255.75 162.957C254.797 164.378 253.523 165.484 251.926 166.275C250.344 167.051 248.564 167.439 246.587 167.439ZM245.95 147.071C244.485 147.071 243.298 147.583 242.39 148.609C241.497 149.634 240.925 151.062 240.676 152.894H250.85V152.498C250.732 150.711 250.256 149.363 249.421 148.455C248.586 147.532 247.429 147.071 245.95 147.071ZM272.734 148.104C272.031 147.986 271.306 147.928 270.559 147.928C268.113 147.928 266.465 148.865 265.615 150.74V167H260.276V143.226H265.374L265.505 145.884C266.794 143.819 268.582 142.786 270.867 142.786C271.628 142.786 272.258 142.889 272.756 143.094L272.734 148.104Z" fill="white"/>
</svg>
