<svg width="350" height="250" viewBox="0 0 350 250" fill="none" xmlns="http://www.w3.org/2000/svg">
<rect width="350" height="250" fill="#8E0000"/>
<path d="M86.1152 103.585C85.793 106.998 84.5332 109.664 82.3359 111.583C80.1387 113.487 77.2163 114.439 73.5688 114.439C71.02 114.439 68.7715 113.839 66.8232 112.638C64.8896 111.422 63.3955 109.701 62.3408 107.474C61.2861 105.248 60.7368 102.662 60.6929 99.7178V96.7295C60.6929 93.7119 61.2275 91.0532 62.2969 88.7534C63.3662 86.4536 64.897 84.6812 66.8892 83.436C68.896 82.1909 71.2104 81.5684 73.8325 81.5684C77.3628 81.5684 80.2046 82.5278 82.3579 84.4468C84.5112 86.3657 85.7637 89.0757 86.1152 92.5767H80.5781C80.3145 90.2769 79.6406 88.6216 78.5566 87.6108C77.4873 86.5854 75.9126 86.0728 73.8325 86.0728C71.4155 86.0728 69.5552 86.959 68.2515 88.7314C66.9624 90.4893 66.3032 93.0747 66.2739 96.4878V99.3223C66.2739 102.779 66.8892 105.416 68.1196 107.232C69.3647 109.049 71.1812 109.957 73.5688 109.957C75.7515 109.957 77.3921 109.466 78.4907 108.485C79.5894 107.503 80.2852 105.87 80.5781 103.585H86.1152ZM89.5869 101.893C89.5869 99.564 90.0483 97.4692 90.9712 95.6089C91.894 93.7339 93.1904 92.2983 94.8604 91.3022C96.5303 90.2915 98.4492 89.7861 100.617 89.7861C103.825 89.7861 106.425 90.8188 108.417 92.8843C110.424 94.9497 111.508 97.689 111.669 101.102L111.691 102.354C111.691 104.698 111.237 106.793 110.329 108.639C109.436 110.484 108.146 111.913 106.462 112.923C104.792 113.934 102.858 114.439 100.661 114.439C97.3066 114.439 94.6187 113.326 92.5972 111.1C90.5903 108.858 89.5869 105.877 89.5869 102.157V101.893ZM94.9263 102.354C94.9263 104.801 95.4316 106.72 96.4424 108.111C97.4531 109.488 98.8594 110.177 100.661 110.177C102.463 110.177 103.862 109.474 104.858 108.067C105.869 106.661 106.374 104.603 106.374 101.893C106.374 99.4907 105.854 97.5864 104.814 96.1802C103.789 94.7739 102.39 94.0708 100.617 94.0708C98.874 94.0708 97.4897 94.7666 96.4644 96.1582C95.439 97.5352 94.9263 99.6006 94.9263 102.354ZM121.228 90.2256L121.381 92.7085C123.051 90.7603 125.336 89.7861 128.237 89.7861C131.416 89.7861 133.591 91.002 134.763 93.4336C136.491 91.002 138.923 89.7861 142.058 89.7861C144.68 89.7861 146.628 90.5112 147.902 91.9614C149.191 93.4116 149.851 95.5503 149.88 98.3774V114H144.541V98.5312C144.541 97.0225 144.211 95.9165 143.552 95.2134C142.893 94.5103 141.801 94.1587 140.278 94.1587C139.062 94.1587 138.066 94.4883 137.29 95.1475C136.528 95.792 135.993 96.6416 135.686 97.6963L135.708 114H130.368V98.3555C130.295 95.5576 128.867 94.1587 126.083 94.1587C123.945 94.1587 122.429 95.0303 121.535 96.7734V114H116.196V90.2256H121.228ZM176.181 102.354C176.181 106.031 175.346 108.968 173.676 111.166C172.006 113.348 169.765 114.439 166.953 114.439C164.345 114.439 162.258 113.583 160.69 111.869V123.141H155.351V90.2256H160.273L160.493 92.6426C162.06 90.7383 164.191 89.7861 166.887 89.7861C169.787 89.7861 172.058 90.8701 173.698 93.0381C175.354 95.1914 176.181 98.187 176.181 102.025V102.354ZM170.864 101.893C170.864 99.52 170.388 97.6377 169.436 96.2461C168.498 94.8545 167.15 94.1587 165.393 94.1587C163.21 94.1587 161.643 95.0596 160.69 96.8613V107.408C161.657 109.254 163.239 110.177 165.437 110.177C167.136 110.177 168.461 109.496 169.414 108.133C170.38 106.756 170.864 104.676 170.864 101.893ZM191.188 114.439C187.805 114.439 185.058 113.377 182.949 111.253C180.854 109.115 179.807 106.273 179.807 102.728V102.069C179.807 99.6958 180.261 97.5791 181.169 95.7188C182.092 93.8438 183.381 92.3862 185.036 91.3462C186.691 90.3062 188.537 89.7861 190.573 89.7861C193.811 89.7861 196.308 90.8188 198.066 92.8843C199.838 94.9497 200.725 97.8721 200.725 101.651V103.805H185.19C185.351 105.768 186.003 107.32 187.146 108.463C188.303 109.605 189.753 110.177 191.496 110.177C193.942 110.177 195.935 109.188 197.473 107.21L200.351 109.957C199.399 111.378 198.125 112.484 196.528 113.275C194.946 114.051 193.166 114.439 191.188 114.439ZM190.551 94.0708C189.086 94.0708 187.9 94.5835 186.992 95.6089C186.098 96.6343 185.527 98.0625 185.278 99.8936H195.451V99.498C195.334 97.7109 194.858 96.3633 194.023 95.4551C193.188 94.5322 192.031 94.0708 190.551 94.0708ZM211.579 84.4468V90.2256H215.776V94.1807H211.579V107.452C211.579 108.36 211.755 109.02 212.106 109.43C212.473 109.825 213.117 110.023 214.04 110.023C214.655 110.023 215.278 109.95 215.908 109.803V113.934C214.692 114.271 213.52 114.439 212.392 114.439C208.291 114.439 206.24 112.176 206.24 107.65V94.1807H202.329V90.2256H206.24V84.4468H211.579ZM230.344 114.439C226.96 114.439 224.213 113.377 222.104 111.253C220.009 109.115 218.962 106.273 218.962 102.728V102.069C218.962 99.6958 219.416 97.5791 220.324 95.7188C221.247 93.8438 222.536 92.3862 224.191 91.3462C225.847 90.3062 227.692 89.7861 229.729 89.7861C232.966 89.7861 235.463 90.8188 237.221 92.8843C238.994 94.9497 239.88 97.8721 239.88 101.651V103.805H224.345C224.506 105.768 225.158 107.32 226.301 108.463C227.458 109.605 228.908 110.177 230.651 110.177C233.098 110.177 235.09 109.188 236.628 107.21L239.506 109.957C238.554 111.378 237.28 112.484 235.683 113.275C234.101 114.051 232.321 114.439 230.344 114.439ZM229.707 94.0708C228.242 94.0708 227.055 94.5835 226.147 95.6089C225.253 96.6343 224.682 98.0625 224.433 99.8936H234.606V99.498C234.489 97.7109 234.013 96.3633 233.178 95.4551C232.343 94.5322 231.186 94.0708 229.707 94.0708ZM248.999 90.2256L249.152 92.9722C250.91 90.8481 253.217 89.7861 256.074 89.7861C261.025 89.7861 263.544 92.6206 263.632 98.2896V114H258.293V98.5972C258.293 97.0884 257.963 95.9751 257.304 95.2573C256.66 94.5249 255.598 94.1587 254.118 94.1587C251.965 94.1587 250.361 95.1328 249.306 97.0811V114H243.967V90.2256H248.999ZM275.783 84.4468V90.2256H279.98V94.1807H275.783V107.452C275.783 108.36 275.959 109.02 276.311 109.43C276.677 109.825 277.321 110.023 278.244 110.023C278.859 110.023 279.482 109.95 280.112 109.803V113.934C278.896 114.271 277.724 114.439 276.596 114.439C272.495 114.439 270.444 112.176 270.444 107.65V94.1807H266.533V90.2256H270.444V84.4468H275.783ZM102.902 153.443H90.0264V167H84.4673V135.008H104.792V139.49H90.0264V149.004H102.902V153.443ZM107.209 154.893C107.209 152.564 107.67 150.469 108.593 148.609C109.516 146.734 110.812 145.298 112.482 144.302C114.152 143.292 116.071 142.786 118.239 142.786C121.447 142.786 124.047 143.819 126.04 145.884C128.046 147.95 129.13 150.689 129.292 154.102L129.313 155.354C129.313 157.698 128.859 159.793 127.951 161.639C127.058 163.484 125.769 164.913 124.084 165.923C122.414 166.934 120.48 167.439 118.283 167.439C114.929 167.439 112.241 166.326 110.219 164.1C108.212 161.858 107.209 158.877 107.209 155.157V154.893ZM112.548 155.354C112.548 157.801 113.054 159.72 114.064 161.111C115.075 162.488 116.481 163.177 118.283 163.177C120.085 163.177 121.484 162.474 122.48 161.067C123.491 159.661 123.996 157.603 123.996 154.893C123.996 152.491 123.476 150.586 122.436 149.18C121.411 147.774 120.012 147.071 118.239 147.071C116.496 147.071 115.112 147.767 114.086 149.158C113.061 150.535 112.548 152.601 112.548 155.354ZM148.232 164.671C146.665 166.517 144.438 167.439 141.552 167.439C138.974 167.439 137.019 166.685 135.686 165.176C134.367 163.667 133.708 161.485 133.708 158.628V143.226H139.047V158.562C139.047 161.58 140.3 163.089 142.805 163.089C145.397 163.089 147.148 162.159 148.056 160.298V143.226H153.396V167H148.364L148.232 164.671ZM163.789 143.226L163.942 145.972C165.7 143.848 168.007 142.786 170.864 142.786C175.815 142.786 178.334 145.621 178.422 151.29V167H173.083V151.597C173.083 150.088 172.753 148.975 172.094 148.257C171.45 147.525 170.388 147.159 168.908 147.159C166.755 147.159 165.151 148.133 164.096 150.081V167H158.757V143.226H163.789ZM182.883 154.937C182.883 151.275 183.732 148.338 185.432 146.126C187.131 143.899 189.409 142.786 192.265 142.786C194.785 142.786 196.821 143.665 198.374 145.423V133.25H203.713V167H198.879L198.615 164.539C197.019 166.473 194.887 167.439 192.221 167.439C189.438 167.439 187.182 166.319 185.454 164.078C183.74 161.836 182.883 158.79 182.883 154.937ZM188.222 155.398C188.222 157.815 188.684 159.705 189.606 161.067C190.544 162.415 191.87 163.089 193.583 163.089C195.766 163.089 197.363 162.115 198.374 160.167V150.015C197.392 148.111 195.81 147.159 193.627 147.159C191.899 147.159 190.566 147.847 189.628 149.224C188.691 150.586 188.222 152.645 188.222 155.398ZM219.753 167.439C216.369 167.439 213.623 166.377 211.513 164.253C209.418 162.115 208.371 159.273 208.371 155.728V155.069C208.371 152.696 208.825 150.579 209.733 148.719C210.656 146.844 211.945 145.386 213.601 144.346C215.256 143.306 217.102 142.786 219.138 142.786C222.375 142.786 224.873 143.819 226.63 145.884C228.403 147.95 229.289 150.872 229.289 154.651V156.805H213.754C213.916 158.768 214.567 160.32 215.71 161.463C216.867 162.605 218.317 163.177 220.061 163.177C222.507 163.177 224.499 162.188 226.037 160.21L228.916 162.957C227.963 164.378 226.689 165.484 225.092 166.275C223.51 167.051 221.73 167.439 219.753 167.439ZM219.116 147.071C217.651 147.071 216.464 147.583 215.556 148.609C214.663 149.634 214.091 151.062 213.842 152.894H224.016V152.498C223.898 150.711 223.422 149.363 222.587 148.455C221.752 147.532 220.595 147.071 219.116 147.071ZM245.9 148.104C245.197 147.986 244.472 147.928 243.725 147.928C241.279 147.928 239.631 148.865 238.781 150.74V167H233.442V143.226H238.54L238.671 145.884C239.96 143.819 241.748 142.786 244.033 142.786C244.794 142.786 245.424 142.889 245.922 143.094L245.9 148.104ZM262.6 160.54C262.6 159.588 262.204 158.863 261.413 158.365C260.637 157.867 259.34 157.427 257.524 157.046C255.708 156.666 254.191 156.182 252.976 155.596C250.31 154.307 248.977 152.439 248.977 149.993C248.977 147.942 249.841 146.229 251.569 144.852C253.298 143.475 255.495 142.786 258.161 142.786C261.003 142.786 263.295 143.489 265.039 144.896C266.796 146.302 267.675 148.125 267.675 150.367H262.336C262.336 149.341 261.955 148.492 261.193 147.818C260.432 147.129 259.421 146.785 258.161 146.785C256.989 146.785 256.03 147.056 255.283 147.598C254.55 148.14 254.184 148.865 254.184 149.773C254.184 150.594 254.528 151.231 255.217 151.685C255.905 152.139 257.297 152.601 259.392 153.069C261.486 153.523 263.127 154.073 264.313 154.717C265.515 155.347 266.401 156.109 266.972 157.002C267.558 157.896 267.851 158.98 267.851 160.254C267.851 162.393 266.965 164.129 265.192 165.462C263.42 166.78 261.098 167.439 258.227 167.439C256.279 167.439 254.543 167.088 253.02 166.385C251.496 165.682 250.31 164.715 249.46 163.484C248.61 162.254 248.186 160.928 248.186 159.507H253.371C253.444 160.767 253.92 161.741 254.799 162.43C255.678 163.104 256.843 163.44 258.293 163.44C259.699 163.44 260.769 163.177 261.501 162.649C262.233 162.107 262.6 161.404 262.6 160.54Z" fill="white"/>
</svg>
