<svg width="350" height="250" viewBox="0 0 350 250" fill="none" xmlns="http://www.w3.org/2000/svg">
<rect width="350" height="250" fill="#8E0000"/>
<path d="M52.6782 103.585C52.356 106.998 51.0962 109.664 48.8989 111.583C46.7017 113.487 43.7793 114.439 40.1318 114.439C37.583 114.439 35.3345 113.839 33.3862 112.638C31.4526 111.422 29.9585 109.701 28.9038 107.474C27.8491 105.248 27.2998 102.662 27.2559 99.7178V96.7295C27.2559 93.7119 27.7905 91.0532 28.8599 88.7534C29.9292 86.4536 31.46 84.6812 33.4521 83.436C35.459 82.1909 37.7734 81.5684 40.3955 81.5684C43.9258 81.5684 46.7676 82.5278 48.9209 84.4468C51.0742 86.3657 52.3267 89.0757 52.6782 92.5767H47.1411C46.8774 90.2769 46.2036 88.6216 45.1196 87.6108C44.0503 86.5854 42.4756 86.0728 40.3955 86.0728C37.9785 86.0728 36.1182 86.959 34.8145 88.7314C33.5254 90.4893 32.8662 93.0747 32.8369 96.4878V99.3223C32.8369 102.779 33.4521 105.416 34.6826 107.232C35.9277 109.049 37.7441 109.957 40.1318 109.957C42.3145 109.957 43.9551 109.466 45.0537 108.485C46.1523 107.503 46.8481 105.87 47.1411 103.585H52.6782ZM62.8296 114H57.4902V80.25H62.8296V114ZM79.1333 114.439C75.7495 114.439 73.0029 113.377 70.8936 111.253C68.7988 109.115 67.7515 106.273 67.7515 102.728V102.069C67.7515 99.6958 68.2056 97.5791 69.1138 95.7188C70.0366 93.8438 71.3257 92.3862 72.981 91.3462C74.6362 90.3062 76.4819 89.7861 78.5181 89.7861C81.7554 89.7861 84.2529 90.8188 86.0107 92.8843C87.7832 94.9497 88.6694 97.8721 88.6694 101.651V103.805H73.1348C73.2959 105.768 73.9478 107.32 75.0903 108.463C76.2476 109.605 77.6978 110.177 79.4409 110.177C81.8872 110.177 83.8794 109.188 85.4175 107.21L88.2959 109.957C87.3438 111.378 86.0693 112.484 84.4727 113.275C82.8906 114.051 81.1108 114.439 79.1333 114.439ZM78.4961 94.0708C77.0312 94.0708 75.8447 94.5835 74.9365 95.6089C74.043 96.6343 73.4717 98.0625 73.2227 99.8936H83.396V99.498C83.2788 97.7109 82.8027 96.3633 81.9678 95.4551C81.1328 94.5322 79.9756 94.0708 78.4961 94.0708ZM107.039 114C106.804 113.546 106.599 112.806 106.423 111.781C104.724 113.553 102.644 114.439 100.183 114.439C97.7954 114.439 95.8472 113.758 94.3384 112.396C92.8296 111.034 92.0752 109.349 92.0752 107.342C92.0752 104.808 93.0127 102.867 94.8877 101.52C96.7773 100.157 99.4727 99.4761 102.974 99.4761H106.248V97.916C106.248 96.6855 105.903 95.7041 105.215 94.9717C104.526 94.2246 103.479 93.8511 102.073 93.8511C100.857 93.8511 99.8608 94.1587 99.0845 94.7739C98.3081 95.3745 97.9199 96.1436 97.9199 97.0811H92.5806C92.5806 95.7773 93.0127 94.5615 93.877 93.4336C94.7412 92.291 95.9131 91.3975 97.3926 90.7529C98.8867 90.1084 100.549 89.7861 102.38 89.7861C105.164 89.7861 107.383 90.4893 109.038 91.8955C110.693 93.2871 111.543 95.25 111.587 97.7842V108.507C111.587 110.646 111.887 112.352 112.488 113.626V114H107.039ZM101.172 110.155C102.227 110.155 103.215 109.898 104.138 109.386C105.076 108.873 105.779 108.185 106.248 107.32V102.838H103.369C101.392 102.838 99.9048 103.182 98.9087 103.871C97.9126 104.559 97.4146 105.533 97.4146 106.793C97.4146 107.818 97.7515 108.639 98.4253 109.254C99.1138 109.854 100.029 110.155 101.172 110.155ZM129.626 95.1035C128.923 94.9863 128.198 94.9277 127.451 94.9277C125.005 94.9277 123.357 95.8652 122.507 97.7402V114H117.168V90.2256H122.266L122.397 92.8843C123.687 90.8188 125.474 89.7861 127.759 89.7861C128.521 89.7861 129.15 89.8887 129.648 90.0938L129.626 95.1035ZM156.477 101.673H150.281V114H144.722V82.0078H155.972C159.663 82.0078 162.512 82.8354 164.519 84.4907C166.526 86.146 167.529 88.541 167.529 91.6758C167.529 93.8145 167.009 95.6089 165.969 97.0591C164.944 98.4946 163.508 99.6006 161.663 100.377L168.848 113.714V114H162.893L156.477 101.673ZM150.281 97.2129H155.994C157.869 97.2129 159.333 96.7441 160.388 95.8066C161.443 94.8545 161.97 93.5581 161.97 91.9175C161.97 90.2036 161.479 88.8779 160.498 87.9404C159.531 87.0029 158.081 86.5195 156.147 86.4902H150.281V97.2129ZM182.756 114.439C179.373 114.439 176.626 113.377 174.517 111.253C172.422 109.115 171.375 106.273 171.375 102.728V102.069C171.375 99.6958 171.829 97.5791 172.737 95.7188C173.66 93.8438 174.949 92.3862 176.604 91.3462C178.259 90.3062 180.105 89.7861 182.141 89.7861C185.378 89.7861 187.876 90.8188 189.634 92.8843C191.406 94.9497 192.292 97.8721 192.292 101.651V103.805H176.758C176.919 105.768 177.571 107.32 178.713 108.463C179.871 109.605 181.321 110.177 183.064 110.177C185.51 110.177 187.502 109.188 189.041 107.21L191.919 109.957C190.967 111.378 189.692 112.484 188.096 113.275C186.514 114.051 184.734 114.439 182.756 114.439ZM182.119 94.0708C180.654 94.0708 179.468 94.5835 178.56 95.6089C177.666 96.6343 177.095 98.0625 176.846 99.8936H187.019V99.498C186.902 97.7109 186.426 96.3633 185.591 95.4551C184.756 94.5322 183.599 94.0708 182.119 94.0708ZM204.531 107.232L209.563 90.2256H215.078L206.838 114H202.202L193.896 90.2256H199.434L204.531 107.232ZM228.591 114.439C225.208 114.439 222.461 113.377 220.352 111.253C218.257 109.115 217.209 106.273 217.209 102.728V102.069C217.209 99.6958 217.664 97.5791 218.572 95.7188C219.495 93.8438 220.784 92.3862 222.439 91.3462C224.094 90.3062 225.94 89.7861 227.976 89.7861C231.213 89.7861 233.711 90.8188 235.469 92.8843C237.241 94.9497 238.127 97.8721 238.127 101.651V103.805H222.593C222.754 105.768 223.406 107.32 224.548 108.463C225.706 109.605 227.156 110.177 228.899 110.177C231.345 110.177 233.337 109.188 234.875 107.21L237.754 109.957C236.802 111.378 235.527 112.484 233.931 113.275C232.349 114.051 230.569 114.439 228.591 114.439ZM227.954 94.0708C226.489 94.0708 225.303 94.5835 224.395 95.6089C223.501 96.6343 222.93 98.0625 222.681 99.8936H232.854V99.498C232.737 97.7109 232.261 96.3633 231.426 95.4551C230.591 94.5322 229.434 94.0708 227.954 94.0708ZM247.246 90.2256L247.4 92.9722C249.158 90.8481 251.465 89.7861 254.321 89.7861C259.272 89.7861 261.792 92.6206 261.88 98.2896V114H256.541V98.5972C256.541 97.0884 256.211 95.9751 255.552 95.2573C254.907 94.5249 253.845 94.1587 252.366 94.1587C250.212 94.1587 248.608 95.1328 247.554 97.0811V114H242.214V90.2256H247.246ZM281.743 111.671C280.176 113.517 277.949 114.439 275.063 114.439C272.485 114.439 270.53 113.685 269.197 112.176C267.878 110.667 267.219 108.485 267.219 105.628V90.2256H272.559V105.562C272.559 108.58 273.811 110.089 276.316 110.089C278.909 110.089 280.659 109.159 281.567 107.298V90.2256H286.907V114H281.875L281.743 111.671ZM302.815 114.439C299.431 114.439 296.685 113.377 294.575 111.253C292.48 109.115 291.433 106.273 291.433 102.728V102.069C291.433 99.6958 291.887 97.5791 292.795 95.7188C293.718 93.8438 295.007 92.3862 296.663 91.3462C298.318 90.3062 300.164 89.7861 302.2 89.7861C305.437 89.7861 307.935 90.8188 309.692 92.8843C311.465 94.9497 312.351 97.8721 312.351 101.651V103.805H296.816C296.978 105.768 297.629 107.32 298.772 108.463C299.929 109.605 301.379 110.177 303.123 110.177C305.569 110.177 307.561 109.188 309.099 107.21L311.978 109.957C311.025 111.378 309.751 112.484 308.154 113.275C306.572 114.051 304.792 114.439 302.815 114.439ZM302.178 94.0708C300.713 94.0708 299.526 94.5835 298.618 95.6089C297.725 96.6343 297.153 98.0625 296.904 99.8936H307.078V99.498C306.96 97.7109 306.484 96.3633 305.649 95.4551C304.814 94.5322 303.657 94.0708 302.178 94.0708ZM122.397 135.008L131.626 159.529L140.833 135.008H148.018V167H142.48V156.453L143.03 142.347L133.582 167H129.604L120.178 142.369L120.728 156.453V167H115.19V135.008H122.397ZM153.093 154.893C153.093 152.564 153.555 150.469 154.478 148.609C155.4 146.734 156.697 145.298 158.367 144.302C160.037 143.292 161.956 142.786 164.124 142.786C167.332 142.786 169.932 143.819 171.924 145.884C173.931 147.95 175.015 150.689 175.176 154.102L175.198 155.354C175.198 157.698 174.744 159.793 173.835 161.639C172.942 163.484 171.653 164.913 169.968 165.923C168.298 166.934 166.365 167.439 164.167 167.439C160.813 167.439 158.125 166.326 156.104 164.1C154.097 161.858 153.093 158.877 153.093 155.157V154.893ZM158.433 155.354C158.433 157.801 158.938 159.72 159.949 161.111C160.959 162.488 162.366 163.177 164.167 163.177C165.969 163.177 167.368 162.474 168.364 161.067C169.375 159.661 169.88 157.603 169.88 154.893C169.88 152.491 169.36 150.586 168.32 149.18C167.295 147.774 165.896 147.071 164.124 147.071C162.38 147.071 160.996 147.767 159.971 149.158C158.945 150.535 158.433 152.601 158.433 155.354ZM178.713 154.937C178.713 151.275 179.563 148.338 181.262 146.126C182.961 143.899 185.239 142.786 188.096 142.786C190.615 142.786 192.651 143.665 194.204 145.423V133.25H199.543V167H194.709L194.446 164.539C192.849 166.473 190.718 167.439 188.052 167.439C185.269 167.439 183.013 166.319 181.284 164.078C179.57 161.836 178.713 158.79 178.713 154.937ZM184.053 155.398C184.053 157.815 184.514 159.705 185.437 161.067C186.375 162.415 187.7 163.089 189.414 163.089C191.597 163.089 193.193 162.115 194.204 160.167V150.015C193.223 148.111 191.641 147.159 189.458 147.159C187.729 147.159 186.396 147.847 185.459 149.224C184.521 150.586 184.053 152.645 184.053 155.398ZM215.583 167.439C212.2 167.439 209.453 166.377 207.344 164.253C205.249 162.115 204.202 159.273 204.202 155.728V155.069C204.202 152.696 204.656 150.579 205.564 148.719C206.487 146.844 207.776 145.386 209.431 144.346C211.086 143.306 212.932 142.786 214.968 142.786C218.206 142.786 220.703 143.819 222.461 145.884C224.233 147.95 225.12 150.872 225.12 154.651V156.805H209.585C209.746 158.768 210.398 160.32 211.541 161.463C212.698 162.605 214.148 163.177 215.891 163.177C218.337 163.177 220.33 162.188 221.868 160.21L224.746 162.957C223.794 164.378 222.52 165.484 220.923 166.275C219.341 167.051 217.561 167.439 215.583 167.439ZM214.946 147.071C213.481 147.071 212.295 147.583 211.387 148.609C210.493 149.634 209.922 151.062 209.673 152.894H219.846V152.498C219.729 150.711 219.253 149.363 218.418 148.455C217.583 147.532 216.426 147.071 214.946 147.071ZM234.963 167H229.624V133.25H234.963V167Z" fill="white"/>
</svg>
