<svg width="350" height="250" viewBox="0 0 350 250" fill="none" xmlns="http://www.w3.org/2000/svg">
<rect width="350" height="250" fill="#8E0000"/>
<path d="M136.79 108.008L146.018 132.529L155.225 108.008H162.41V140H156.873V129.453L157.422 115.347L147.974 140H143.997L134.57 115.369L135.12 129.453V140H129.583V108.008H136.79ZM180.273 133.035L188.403 108.008H194.512L182.998 140H177.615L166.145 108.008H172.231L180.273 133.035ZM203.696 128.113V140H198.137V108.008H210.376C213.95 108.008 216.785 108.938 218.879 110.798C220.989 112.659 222.043 115.12 222.043 118.181C222.043 121.316 221.011 123.755 218.945 125.498C216.895 127.241 214.016 128.113 210.31 128.113H203.696ZM203.696 123.652H210.376C212.354 123.652 213.862 123.191 214.902 122.268C215.942 121.331 216.462 119.983 216.462 118.225C216.462 116.497 215.935 115.12 214.88 114.094C213.826 113.054 212.375 112.52 210.53 112.49H203.696V123.652Z" fill="white"/>
</svg>
