<svg width="350" height="250" viewBox="0 0 350 250" fill="none" xmlns="http://www.w3.org/2000/svg">
<rect width="350" height="250" fill="#8E0000"/>
<path d="M28.1128 102.113V114H22.5537V82.0078H34.7925C38.3667 82.0078 41.2012 82.938 43.2959 84.7983C45.4053 86.6587 46.46 89.1196 46.46 92.1812C46.46 95.3159 45.4272 97.7549 43.3618 99.498C41.311 101.241 38.4326 102.113 34.7266 102.113H28.1128ZM28.1128 97.6523H34.7925C36.77 97.6523 38.2788 97.1909 39.3188 96.2681C40.3589 95.3306 40.8789 93.9829 40.8789 92.2251C40.8789 90.4966 40.3516 89.1196 39.2969 88.0942C38.2422 87.0542 36.792 86.5195 34.9463 86.4902H28.1128V97.6523ZM63.269 95.1035C62.5659 94.9863 61.8408 94.9277 61.0938 94.9277C58.6475 94.9277 56.9995 95.8652 56.1499 97.7402V114H50.8105V90.2256H55.9082L56.04 92.8843C57.3291 90.8188 59.1162 89.7861 61.4014 89.7861C62.1631 89.7861 62.793 89.8887 63.291 90.0938L63.269 95.1035ZM64.8511 101.893C64.8511 99.564 65.3125 97.4692 66.2354 95.6089C67.1582 93.7339 68.4546 92.2983 70.1245 91.3022C71.7944 90.2915 73.7134 89.7861 75.8813 89.7861C79.0894 89.7861 81.6895 90.8188 83.6816 92.8843C85.6885 94.9497 86.7725 97.689 86.9336 101.102L86.9556 102.354C86.9556 104.698 86.5015 106.793 85.5933 108.639C84.6997 110.484 83.4106 111.913 81.7261 112.923C80.0562 113.934 78.1226 114.439 75.9253 114.439C72.5708 114.439 69.8828 113.326 67.8613 111.1C65.8545 108.858 64.8511 105.877 64.8511 102.157V101.893ZM70.1904 102.354C70.1904 104.801 70.6958 106.72 71.7065 108.111C72.7173 109.488 74.1235 110.177 75.9253 110.177C77.7271 110.177 79.126 109.474 80.1221 108.067C81.1328 106.661 81.6382 104.603 81.6382 101.893C81.6382 99.4907 81.1182 97.5864 80.0781 96.1802C79.0527 94.7739 77.6538 94.0708 75.8813 94.0708C74.1382 94.0708 72.7539 94.7666 71.7285 96.1582C70.7031 97.5352 70.1904 99.6006 70.1904 102.354ZM90.4712 101.937C90.4712 98.2749 91.3208 95.3379 93.02 93.126C94.7192 90.8994 96.9971 89.7861 99.8535 89.7861C102.373 89.7861 104.409 90.665 105.962 92.4229V80.25H111.301V114H106.467L106.204 111.539C104.607 113.473 102.476 114.439 99.8096 114.439C97.0264 114.439 94.7705 113.319 93.042 111.078C91.3281 108.836 90.4712 105.79 90.4712 101.937ZM95.8105 102.398C95.8105 104.815 96.272 106.705 97.1948 108.067C98.1323 109.415 99.458 110.089 101.172 110.089C103.354 110.089 104.951 109.115 105.962 107.167V97.0151C104.98 95.1108 103.398 94.1587 101.216 94.1587C99.4873 94.1587 98.1543 94.8472 97.2168 96.2241C96.2793 97.5864 95.8105 99.6445 95.8105 102.398ZM131.274 111.671C129.707 113.517 127.48 114.439 124.595 114.439C122.017 114.439 120.061 113.685 118.728 112.176C117.41 110.667 116.75 108.485 116.75 105.628V90.2256H122.09V105.562C122.09 108.58 123.342 110.089 125.847 110.089C128.44 110.089 130.19 109.159 131.099 107.298V90.2256H136.438V114H131.406L131.274 111.671ZM151.643 110.177C152.976 110.177 154.082 109.789 154.961 109.012C155.84 108.236 156.309 107.276 156.367 106.134H161.399C161.34 107.613 160.879 108.998 160.015 110.287C159.15 111.561 157.979 112.572 156.499 113.319C155.02 114.066 153.423 114.439 151.709 114.439C148.384 114.439 145.747 113.363 143.799 111.209C141.851 109.056 140.876 106.083 140.876 102.289V101.739C140.876 98.1211 141.843 95.228 143.777 93.0601C145.71 90.8774 148.347 89.7861 151.687 89.7861C154.514 89.7861 156.814 90.6138 158.586 92.269C160.374 93.9097 161.311 96.0703 161.399 98.751H156.367C156.309 97.3887 155.84 96.2681 154.961 95.3892C154.097 94.5103 152.991 94.0708 151.643 94.0708C149.915 94.0708 148.582 94.7007 147.644 95.9604C146.707 97.2056 146.23 99.1025 146.216 101.651V102.508C146.216 105.086 146.677 107.013 147.6 108.287C148.538 109.547 149.885 110.177 151.643 110.177ZM172.122 84.4468V90.2256H176.318V94.1807H172.122V107.452C172.122 108.36 172.297 109.02 172.649 109.43C173.015 109.825 173.66 110.023 174.583 110.023C175.198 110.023 175.82 109.95 176.45 109.803V113.934C175.234 114.271 174.062 114.439 172.935 114.439C168.833 114.439 166.782 112.176 166.782 107.65V94.1807H162.871V90.2256H166.782V84.4468H172.122ZM199.346 82.0078L208.574 106.529L217.781 82.0078H224.966V114H219.429V103.453L219.978 89.3467L210.53 114H206.553L197.126 89.3687L197.676 103.453V114H192.139V82.0078H199.346ZM245.247 114C245.012 113.546 244.807 112.806 244.631 111.781C242.932 113.553 240.852 114.439 238.391 114.439C236.003 114.439 234.055 113.758 232.546 112.396C231.038 111.034 230.283 109.349 230.283 107.342C230.283 104.808 231.221 102.867 233.096 101.52C234.985 100.157 237.681 99.4761 241.182 99.4761H244.456V97.916C244.456 96.6855 244.111 95.7041 243.423 94.9717C242.734 94.2246 241.687 93.8511 240.281 93.8511C239.065 93.8511 238.069 94.1587 237.292 94.7739C236.516 95.3745 236.128 96.1436 236.128 97.0811H230.789C230.789 95.7773 231.221 94.5615 232.085 93.4336C232.949 92.291 234.121 91.3975 235.601 90.7529C237.095 90.1084 238.757 89.7861 240.588 89.7861C243.372 89.7861 245.591 90.4893 247.246 91.8955C248.901 93.2871 249.751 95.25 249.795 97.7842V108.507C249.795 110.646 250.095 112.352 250.696 113.626V114H245.247ZM239.38 110.155C240.435 110.155 241.423 109.898 242.346 109.386C243.284 108.873 243.987 108.185 244.456 107.32V102.838H241.577C239.6 102.838 238.113 103.182 237.117 103.871C236.121 104.559 235.623 105.533 235.623 106.793C235.623 107.818 235.959 108.639 236.633 109.254C237.322 109.854 238.237 110.155 239.38 110.155ZM267.834 95.1035C267.131 94.9863 266.406 94.9277 265.659 94.9277C263.213 94.9277 261.565 95.8652 260.715 97.7402V114H255.376V90.2256H260.474L260.605 92.8843C261.895 90.8188 263.682 89.7861 265.967 89.7861C266.729 89.7861 267.358 89.8887 267.856 90.0938L267.834 95.1035ZM278.931 103.805L276.558 106.244V114H271.218V80.25H276.558V99.7178L278.228 97.6304L284.797 90.2256H291.213L282.38 100.135L292.158 114H285.984L278.931 103.805ZM304.749 114.439C301.365 114.439 298.618 113.377 296.509 111.253C294.414 109.115 293.367 106.273 293.367 102.728V102.069C293.367 99.6958 293.821 97.5791 294.729 95.7188C295.652 93.8438 296.941 92.3862 298.596 91.3462C300.251 90.3062 302.097 89.7861 304.133 89.7861C307.371 89.7861 309.868 90.8188 311.626 92.8843C313.398 94.9497 314.285 97.8721 314.285 101.651V103.805H298.75C298.911 105.768 299.563 107.32 300.706 108.463C301.863 109.605 303.313 110.177 305.056 110.177C307.502 110.177 309.495 109.188 311.033 107.21L313.911 109.957C312.959 111.378 311.685 112.484 310.088 113.275C308.506 114.051 306.726 114.439 304.749 114.439ZM304.111 94.0708C302.646 94.0708 301.46 94.5835 300.552 95.6089C299.658 96.6343 299.087 98.0625 298.838 99.8936H309.011V99.498C308.894 97.7109 308.418 96.3633 307.583 95.4551C306.748 94.5322 305.591 94.0708 304.111 94.0708ZM325.139 84.4468V90.2256H329.336V94.1807H325.139V107.452C325.139 108.36 325.315 109.02 325.667 109.43C326.033 109.825 326.677 110.023 327.6 110.023C328.215 110.023 328.838 109.95 329.468 109.803V113.934C328.252 114.271 327.08 114.439 325.952 114.439C321.851 114.439 319.8 112.176 319.8 107.65V94.1807H315.889V90.2256H319.8V84.4468H325.139ZM171.067 153.443H158.191V167H152.632V135.008H172.957V139.49H158.191V149.004H171.067V153.443ZM182.537 167H177.197V143.226H182.537V167ZM176.868 137.051C176.868 136.231 177.124 135.55 177.637 135.008C178.164 134.466 178.911 134.195 179.878 134.195C180.845 134.195 181.592 134.466 182.119 135.008C182.646 135.55 182.91 136.231 182.91 137.051C182.91 137.857 182.646 138.531 182.119 139.073C181.592 139.6 180.845 139.864 179.878 139.864C178.911 139.864 178.164 139.6 177.637 139.073C177.124 138.531 176.868 137.857 176.868 137.051ZM195.061 137.447V143.226H199.258V147.181H195.061V160.452C195.061 161.36 195.237 162.02 195.588 162.43C195.955 162.825 196.599 163.023 197.522 163.023C198.137 163.023 198.76 162.95 199.39 162.803V166.934C198.174 167.271 197.002 167.439 195.874 167.439C191.772 167.439 189.722 165.176 189.722 160.65V147.181H185.811V143.226H189.722V137.447H195.061Z" fill="white"/>
</svg>
