<svg width="350" height="250" viewBox="0 0 350 250" fill="none" xmlns="http://www.w3.org/2000/svg">
<rect width="350" height="250" fill="#8E0000"/>
<path d="M32.1777 102.113V114H26.6187V82.0078H38.8574C42.4316 82.0078 45.2661 82.938 47.3608 84.7983C49.4702 86.6587 50.5249 89.1196 50.5249 92.1812C50.5249 95.3159 49.4922 97.7549 47.4268 99.498C45.376 101.241 42.4976 102.113 38.7915 102.113H32.1777ZM32.1777 97.6523H38.8574C40.835 97.6523 42.3438 97.1909 43.3838 96.2681C44.4238 95.3306 44.9438 93.9829 44.9438 92.2251C44.9438 90.4966 44.4165 89.1196 43.3618 88.0942C42.3071 87.0542 40.8569 86.5195 39.0112 86.4902H32.1777V97.6523ZM67.334 95.1035C66.6309 94.9863 65.9058 94.9277 65.1587 94.9277C62.7124 94.9277 61.0645 95.8652 60.2148 97.7402V114H54.8755V90.2256H59.9731L60.105 92.8843C61.394 90.8188 63.1812 89.7861 65.4663 89.7861C66.228 89.7861 66.8579 89.8887 67.356 90.0938L67.334 95.1035ZM68.916 101.893C68.916 99.564 69.3774 97.4692 70.3003 95.6089C71.2231 93.7339 72.5195 92.2983 74.1895 91.3022C75.8594 90.2915 77.7783 89.7861 79.9463 89.7861C83.1543 89.7861 85.7544 90.8188 87.7466 92.8843C89.7534 94.9497 90.8374 97.689 90.9985 101.102L91.0205 102.354C91.0205 104.698 90.5664 106.793 89.6582 108.639C88.7646 110.484 87.4756 111.913 85.791 112.923C84.1211 113.934 82.1875 114.439 79.9902 114.439C76.6357 114.439 73.9478 113.326 71.9263 111.1C69.9194 108.858 68.916 105.877 68.916 102.157V101.893ZM74.2554 102.354C74.2554 104.801 74.7607 106.72 75.7715 108.111C76.7822 109.488 78.1885 110.177 79.9902 110.177C81.792 110.177 83.1909 109.474 84.187 108.067C85.1978 106.661 85.7031 104.603 85.7031 101.893C85.7031 99.4907 85.1831 97.5864 84.1431 96.1802C83.1177 94.7739 81.7188 94.0708 79.9463 94.0708C78.2031 94.0708 76.8188 94.7666 75.7935 96.1582C74.7681 97.5352 74.2554 99.6006 74.2554 102.354ZM94.5361 101.937C94.5361 98.2749 95.3857 95.3379 97.085 93.126C98.7842 90.8994 101.062 89.7861 103.918 89.7861C106.438 89.7861 108.474 90.665 110.027 92.4229V80.25H115.366V114H110.532L110.269 111.539C108.672 113.473 106.541 114.439 103.875 114.439C101.091 114.439 98.8354 113.319 97.1069 111.078C95.3931 108.836 94.5361 105.79 94.5361 101.937ZM99.8755 102.398C99.8755 104.815 100.337 106.705 101.26 108.067C102.197 109.415 103.523 110.089 105.237 110.089C107.419 110.089 109.016 109.115 110.027 107.167V97.0151C109.045 95.1108 107.463 94.1587 105.281 94.1587C103.552 94.1587 102.219 94.8472 101.282 96.2241C100.344 97.5864 99.8755 99.6445 99.8755 102.398ZM135.339 111.671C133.772 113.517 131.545 114.439 128.66 114.439C126.082 114.439 124.126 113.685 122.793 112.176C121.475 110.667 120.815 108.485 120.815 105.628V90.2256H126.155V105.562C126.155 108.58 127.407 110.089 129.912 110.089C132.505 110.089 134.255 109.159 135.164 107.298V90.2256H140.503V114H135.471L135.339 111.671ZM155.708 110.177C157.041 110.177 158.147 109.789 159.026 109.012C159.905 108.236 160.374 107.276 160.432 106.134H165.464C165.405 107.613 164.944 108.998 164.08 110.287C163.215 111.561 162.043 112.572 160.564 113.319C159.084 114.066 157.488 114.439 155.774 114.439C152.449 114.439 149.812 113.363 147.864 111.209C145.916 109.056 144.941 106.083 144.941 102.289V101.739C144.941 98.1211 145.908 95.228 147.842 93.0601C149.775 90.8774 152.412 89.7861 155.752 89.7861C158.579 89.7861 160.879 90.6138 162.651 92.269C164.438 93.9097 165.376 96.0703 165.464 98.751H160.432C160.374 97.3887 159.905 96.2681 159.026 95.3892C158.162 94.5103 157.056 94.0708 155.708 94.0708C153.979 94.0708 152.646 94.7007 151.709 95.9604C150.771 97.2056 150.295 99.1025 150.281 101.651V102.508C150.281 105.086 150.742 107.013 151.665 108.287C152.603 109.547 153.95 110.177 155.708 110.177ZM176.187 84.4468V90.2256H180.383V94.1807H176.187V107.452C176.187 108.36 176.362 109.02 176.714 109.43C177.08 109.825 177.725 110.023 178.647 110.023C179.263 110.023 179.885 109.95 180.515 109.803V113.934C179.299 114.271 178.127 114.439 177 114.439C172.898 114.439 170.847 112.176 170.847 107.65V94.1807H166.936V90.2256H170.847V84.4468H176.187ZM212.925 105.76C212.925 104.354 212.427 103.27 211.431 102.508C210.449 101.747 208.669 100.978 206.091 100.201C203.513 99.4248 201.462 98.5605 199.939 97.6084C197.024 95.7773 195.566 93.3896 195.566 90.4453C195.566 87.8672 196.614 85.7432 198.708 84.0732C200.818 82.4033 203.55 81.5684 206.904 81.5684C209.131 81.5684 211.116 81.9785 212.859 82.7988C214.602 83.6191 215.972 84.791 216.968 86.3145C217.964 87.8232 218.462 89.5005 218.462 91.3462H212.925C212.925 89.6763 212.397 88.3726 211.343 87.4351C210.303 86.4829 208.809 86.0068 206.86 86.0068C205.044 86.0068 203.63 86.395 202.62 87.1714C201.624 87.9478 201.125 89.0317 201.125 90.4233C201.125 91.5952 201.667 92.5767 202.751 93.3677C203.835 94.144 205.623 94.9058 208.113 95.6528C210.603 96.3853 212.603 97.2275 214.111 98.1797C215.62 99.1172 216.726 100.201 217.429 101.432C218.132 102.647 218.484 104.076 218.484 105.716C218.484 108.382 217.458 110.506 215.408 112.088C213.372 113.656 210.603 114.439 207.102 114.439C204.788 114.439 202.656 114.015 200.708 113.165C198.774 112.301 197.266 111.114 196.182 109.605C195.112 108.097 194.578 106.339 194.578 104.332H200.137C200.137 106.148 200.737 107.555 201.938 108.551C203.14 109.547 204.861 110.045 207.102 110.045C209.036 110.045 210.486 109.657 211.453 108.88C212.434 108.089 212.925 107.049 212.925 105.76ZM221.846 101.893C221.846 99.564 222.307 97.4692 223.23 95.6089C224.153 93.7339 225.449 92.2983 227.119 91.3022C228.789 90.2915 230.708 89.7861 232.876 89.7861C236.084 89.7861 238.684 90.8188 240.676 92.8843C242.683 94.9497 243.767 97.689 243.928 101.102L243.95 102.354C243.95 104.698 243.496 106.793 242.588 108.639C241.694 110.484 240.405 111.913 238.721 112.923C237.051 113.934 235.117 114.439 232.92 114.439C229.565 114.439 226.877 113.326 224.856 111.1C222.849 108.858 221.846 105.877 221.846 102.157V101.893ZM227.185 102.354C227.185 104.801 227.69 106.72 228.701 108.111C229.712 109.488 231.118 110.177 232.92 110.177C234.722 110.177 236.121 109.474 237.117 108.067C238.127 106.661 238.633 104.603 238.633 101.893C238.633 99.4907 238.113 97.5864 237.073 96.1802C236.047 94.7739 234.648 94.0708 232.876 94.0708C231.133 94.0708 229.749 94.7666 228.723 96.1582C227.698 97.5352 227.185 99.6006 227.185 102.354ZM254.146 114H248.806V80.25H254.146V114ZM268.362 107.232L273.394 90.2256H278.909L270.669 114H266.033L257.727 90.2256H263.264L268.362 107.232ZM292.422 114.439C289.038 114.439 286.292 113.377 284.182 111.253C282.087 109.115 281.04 106.273 281.04 102.728V102.069C281.04 99.6958 281.494 97.5791 282.402 95.7188C283.325 93.8438 284.614 92.3862 286.27 91.3462C287.925 90.3062 289.771 89.7861 291.807 89.7861C295.044 89.7861 297.542 90.8188 299.299 92.8843C301.072 94.9497 301.958 97.8721 301.958 101.651V103.805H286.423C286.584 105.768 287.236 107.32 288.379 108.463C289.536 109.605 290.986 110.177 292.729 110.177C295.176 110.177 297.168 109.188 298.706 107.21L301.584 109.957C300.632 111.378 299.358 112.484 297.761 113.275C296.179 114.051 294.399 114.439 292.422 114.439ZM291.785 94.0708C290.32 94.0708 289.133 94.5835 288.225 95.6089C287.332 96.6343 286.76 98.0625 286.511 99.8936H296.685V99.498C296.567 97.7109 296.091 96.3633 295.256 95.4551C294.421 94.5322 293.264 94.0708 291.785 94.0708ZM319.448 107.54C319.448 106.588 319.053 105.863 318.262 105.365C317.485 104.867 316.189 104.427 314.373 104.046C312.556 103.666 311.04 103.182 309.824 102.596C307.158 101.307 305.825 99.4395 305.825 96.9932C305.825 94.9424 306.689 93.2285 308.418 91.8516C310.146 90.4746 312.344 89.7861 315.01 89.7861C317.852 89.7861 320.144 90.4893 321.887 91.8955C323.645 93.3018 324.524 95.1255 324.524 97.3667H319.185C319.185 96.3413 318.804 95.4917 318.042 94.8179C317.28 94.1294 316.27 93.7852 315.01 93.7852C313.838 93.7852 312.878 94.0562 312.131 94.5981C311.399 95.1401 311.033 95.8652 311.033 96.7734C311.033 97.5938 311.377 98.231 312.065 98.6851C312.754 99.1392 314.146 99.6006 316.24 100.069C318.335 100.523 319.976 101.073 321.162 101.717C322.363 102.347 323.25 103.109 323.821 104.002C324.407 104.896 324.7 105.98 324.7 107.254C324.7 109.393 323.813 111.129 322.041 112.462C320.269 113.78 317.947 114.439 315.076 114.439C313.127 114.439 311.392 114.088 309.868 113.385C308.345 112.682 307.158 111.715 306.309 110.484C305.459 109.254 305.034 107.928 305.034 106.507H310.22C310.293 107.767 310.769 108.741 311.648 109.43C312.527 110.104 313.691 110.44 315.142 110.44C316.548 110.44 317.617 110.177 318.35 109.649C319.082 109.107 319.448 108.404 319.448 107.54ZM59.6216 156.585C59.2993 159.998 58.0396 162.664 55.8423 164.583C53.645 166.487 50.7227 167.439 47.0752 167.439C44.5264 167.439 42.2778 166.839 40.3296 165.638C38.396 164.422 36.9019 162.701 35.8472 160.474C34.7925 158.248 34.2432 155.662 34.1992 152.718V149.729C34.1992 146.712 34.7339 144.053 35.8032 141.753C36.8726 139.454 38.4033 137.681 40.3955 136.436C42.4023 135.191 44.7168 134.568 47.3389 134.568C50.8691 134.568 53.7109 135.528 55.8643 137.447C58.0176 139.366 59.27 142.076 59.6216 145.577H54.0845C53.8208 143.277 53.147 141.622 52.063 140.611C50.9937 139.585 49.4189 139.073 47.3389 139.073C44.9219 139.073 43.0615 139.959 41.7578 141.731C40.4688 143.489 39.8096 146.075 39.7803 149.488V152.322C39.7803 155.779 40.3955 158.416 41.626 160.232C42.8711 162.049 44.6875 162.957 47.0752 162.957C49.2578 162.957 50.8984 162.466 51.9971 161.485C53.0957 160.503 53.7915 158.87 54.0845 156.585H59.6216ZM69.7729 167H64.4336V133.25H69.7729V167ZM86.0767 167.439C82.6929 167.439 79.9463 166.377 77.8369 164.253C75.7422 162.115 74.6948 159.273 74.6948 155.728V155.069C74.6948 152.696 75.1489 150.579 76.0571 148.719C76.98 146.844 78.269 145.386 79.9243 144.346C81.5796 143.306 83.4253 142.786 85.4614 142.786C88.6987 142.786 91.1963 143.819 92.9541 145.884C94.7266 147.95 95.6128 150.872 95.6128 154.651V156.805H80.0781C80.2393 158.768 80.8911 160.32 82.0337 161.463C83.1909 162.605 84.6411 163.177 86.3843 163.177C88.8306 163.177 90.8228 162.188 92.3608 160.21L95.2393 162.957C94.2871 164.378 93.0127 165.484 91.416 166.275C89.834 167.051 88.0542 167.439 86.0767 167.439ZM85.4395 147.071C83.9746 147.071 82.7881 147.583 81.8799 148.609C80.9863 149.634 80.415 151.062 80.166 152.894H90.3394V152.498C90.2222 150.711 89.7461 149.363 88.9111 148.455C88.0762 147.532 86.9189 147.071 85.4395 147.071ZM113.982 167C113.748 166.546 113.542 165.806 113.367 164.781C111.667 166.553 109.587 167.439 107.126 167.439C104.739 167.439 102.791 166.758 101.282 165.396C99.7729 164.034 99.0186 162.349 99.0186 160.342C99.0186 157.808 99.9561 155.867 101.831 154.52C103.721 153.157 106.416 152.476 109.917 152.476H113.191V150.916C113.191 149.686 112.847 148.704 112.158 147.972C111.47 147.225 110.422 146.851 109.016 146.851C107.8 146.851 106.804 147.159 106.028 147.774C105.251 148.375 104.863 149.144 104.863 150.081H99.5239C99.5239 148.777 99.9561 147.562 100.82 146.434C101.685 145.291 102.856 144.397 104.336 143.753C105.83 143.108 107.493 142.786 109.324 142.786C112.107 142.786 114.326 143.489 115.981 144.896C117.637 146.287 118.486 148.25 118.53 150.784V161.507C118.53 163.646 118.831 165.352 119.431 166.626V167H113.982ZM108.115 163.155C109.17 163.155 110.159 162.898 111.082 162.386C112.019 161.873 112.722 161.185 113.191 160.32V155.838H110.312C108.335 155.838 106.848 156.182 105.852 156.871C104.856 157.559 104.358 158.533 104.358 159.793C104.358 160.818 104.695 161.639 105.369 162.254C106.057 162.854 106.973 163.155 108.115 163.155ZM136.57 148.104C135.867 147.986 135.142 147.928 134.395 147.928C131.948 147.928 130.3 148.865 129.451 150.74V167H124.111V143.226H129.209L129.341 145.884C130.63 143.819 132.417 142.786 134.702 142.786C135.464 142.786 136.094 142.889 136.592 143.094L136.57 148.104ZM157.224 155.113V167H151.665V135.008H163.904C167.478 135.008 170.312 135.938 172.407 137.798C174.517 139.659 175.571 142.12 175.571 145.181C175.571 148.316 174.539 150.755 172.473 152.498C170.422 154.241 167.544 155.113 163.838 155.113H157.224ZM157.224 150.652H163.904C165.881 150.652 167.39 150.191 168.43 149.268C169.47 148.331 169.99 146.983 169.99 145.225C169.99 143.497 169.463 142.12 168.408 141.094C167.354 140.054 165.903 139.52 164.058 139.49H157.224V150.652ZM192.38 148.104C191.677 147.986 190.952 147.928 190.205 147.928C187.759 147.928 186.111 148.865 185.261 150.74V167H179.922V143.226H185.02L185.151 145.884C186.44 143.819 188.228 142.786 190.513 142.786C191.274 142.786 191.904 142.889 192.402 143.094L192.38 148.104ZM193.962 154.893C193.962 152.564 194.424 150.469 195.347 148.609C196.27 146.734 197.566 145.298 199.236 144.302C200.906 143.292 202.825 142.786 204.993 142.786C208.201 142.786 210.801 143.819 212.793 145.884C214.8 147.95 215.884 150.689 216.045 154.102L216.067 155.354C216.067 157.698 215.613 159.793 214.705 161.639C213.811 163.484 212.522 164.913 210.837 165.923C209.167 166.934 207.234 167.439 205.037 167.439C201.682 167.439 198.994 166.326 196.973 164.1C194.966 161.858 193.962 158.877 193.962 155.157V154.893ZM199.302 155.354C199.302 157.801 199.807 159.72 200.818 161.111C201.829 162.488 203.235 163.177 205.037 163.177C206.838 163.177 208.237 162.474 209.233 161.067C210.244 159.661 210.75 157.603 210.75 154.893C210.75 152.491 210.229 150.586 209.189 149.18C208.164 147.774 206.765 147.071 204.993 147.071C203.25 147.071 201.865 147.767 200.84 149.158C199.814 150.535 199.302 152.601 199.302 155.354ZM241.445 155.354C241.445 159.046 240.618 161.983 238.962 164.166C237.322 166.348 235.059 167.439 232.173 167.439C229.39 167.439 227.222 166.436 225.669 164.429L225.405 167H220.571V133.25H225.911V145.511C227.449 143.694 229.521 142.786 232.129 142.786C235.029 142.786 237.307 143.863 238.962 146.016C240.618 148.169 241.445 151.18 241.445 155.047V155.354ZM236.106 154.893C236.106 152.315 235.652 150.381 234.744 149.092C233.835 147.803 232.517 147.159 230.789 147.159C228.474 147.159 226.848 148.169 225.911 150.191V159.991C226.863 162.056 228.503 163.089 230.833 163.089C232.502 163.089 233.792 162.466 234.7 161.221C235.608 159.976 236.077 158.094 236.106 155.574V154.893ZM251.619 167H246.279V133.25H251.619V167ZM267.922 167.439C264.539 167.439 261.792 166.377 259.683 164.253C257.588 162.115 256.541 159.273 256.541 155.728V155.069C256.541 152.696 256.995 150.579 257.903 148.719C258.826 146.844 260.115 145.386 261.77 144.346C263.425 143.306 265.271 142.786 267.307 142.786C270.544 142.786 273.042 143.819 274.8 145.884C276.572 147.95 277.458 150.872 277.458 154.651V156.805H261.924C262.085 158.768 262.737 160.32 263.879 161.463C265.037 162.605 266.487 163.177 268.23 163.177C270.676 163.177 272.668 162.188 274.207 160.21L277.085 162.957C276.133 164.378 274.858 165.484 273.262 166.275C271.68 167.051 269.9 167.439 267.922 167.439ZM267.285 147.071C265.82 147.071 264.634 147.583 263.726 148.609C262.832 149.634 262.261 151.062 262.012 152.894H272.185V152.498C272.068 150.711 271.592 149.363 270.757 148.455C269.922 147.532 268.765 147.071 267.285 147.071ZM286.643 143.226L286.797 145.708C288.467 143.76 290.752 142.786 293.652 142.786C296.831 142.786 299.006 144.002 300.178 146.434C301.907 144.002 304.338 142.786 307.473 142.786C310.095 142.786 312.043 143.511 313.318 144.961C314.607 146.412 315.266 148.55 315.295 151.377V167H309.956V151.531C309.956 150.022 309.626 148.917 308.967 148.213C308.308 147.51 307.217 147.159 305.693 147.159C304.478 147.159 303.481 147.488 302.705 148.147C301.943 148.792 301.409 149.642 301.101 150.696L301.123 167H295.784V151.355C295.71 148.558 294.282 147.159 291.499 147.159C289.36 147.159 287.844 148.03 286.951 149.773V167H281.611V143.226H286.643Z" fill="white"/>
</svg>
