<svg width="300" height="300" viewBox="0 0 300 300" fill="none" xmlns="http://www.w3.org/2000/svg">
<circle cx="150" cy="150" r="150" fill="#D50000"/>
<path d="M137.422 142.484H147.195C153.336 142.391 158.164 140.773 161.68 137.633C165.195 134.492 166.953 130.25 166.953 124.906C166.953 112.906 160.977 106.906 149.023 106.906C143.398 106.906 138.898 108.523 135.523 111.758C132.195 114.945 130.531 119.188 130.531 124.484H117.523C117.523 116.375 120.477 109.648 126.383 104.305C132.336 98.9141 139.883 96.2188 149.023 96.2188C158.68 96.2188 166.25 98.7734 171.734 103.883C177.219 108.992 179.961 116.094 179.961 125.188C179.961 129.641 178.508 133.953 175.602 138.125C172.742 142.297 168.828 145.414 163.859 147.477C169.484 149.258 173.82 152.211 176.867 156.336C179.961 160.461 181.508 165.5 181.508 171.453C181.508 180.641 178.508 187.93 172.508 193.32C166.508 198.711 158.703 201.406 149.094 201.406C139.484 201.406 131.656 198.805 125.609 193.602C119.609 188.398 116.609 181.531 116.609 173H129.688C129.688 178.391 131.445 182.703 134.961 185.938C138.477 189.172 143.188 190.789 149.094 190.789C155.375 190.789 160.18 189.148 163.508 185.867C166.836 182.586 168.5 177.875 168.5 171.734C168.5 165.781 166.672 161.211 163.016 158.023C159.359 154.836 154.086 153.195 147.195 153.102H137.422V142.484Z" fill="white"/>
</svg>
