<svg width="300" height="300" viewBox="0 0 300 300" fill="none" xmlns="http://www.w3.org/2000/svg">
<circle cx="150" cy="150" r="150" fill="#D50000"/>
<path d="M185.586 200H118.508V190.648L153.945 151.273C159.195 145.32 162.805 140.492 164.773 136.789C166.789 133.039 167.797 129.172 167.797 125.188C167.797 119.844 166.18 115.461 162.945 112.039C159.711 108.617 155.398 106.906 150.008 106.906C143.539 106.906 138.5 108.758 134.891 112.461C131.328 116.117 129.547 121.227 129.547 127.789H116.539C116.539 118.367 119.562 110.75 125.609 104.938C131.703 99.125 139.836 96.2188 150.008 96.2188C159.523 96.2188 167.047 98.7266 172.578 103.742C178.109 108.711 180.875 115.344 180.875 123.641C180.875 133.719 174.453 145.719 161.609 159.641L134.188 189.383H185.586V200Z" fill="white"/>
</svg>
